<mxfile host="Electron" agent="Mozilla/5.0 (Windows NT 10.0; Win64; x64) AppleWebKit/537.36 (KHTML, like Gecko) draw.io/24.7.8 Chrome/128.0.6613.36 Electron/32.0.1 Safari/537.36" version="24.7.8">
  <diagram name="Page-1" id="tqgh8wIxIpG1xmtgchpj">
    <mxGraphModel dx="1098" dy="868" grid="1" gridSize="10" guides="1" tooltips="1" connect="1" arrows="1" fold="1" page="1" pageScale="1" pageWidth="850" pageHeight="1100" math="0" shadow="0">
      <root>
        <mxCell id="0" />
        <mxCell id="1" parent="0" />
        <mxCell id="u9Umea-9Md1OC9XHzGHI-1" value="QuartServer" style="whiteSpace=wrap;strokeWidth=2;verticalAlign=top;" vertex="1" parent="1">
          <mxGeometry x="20" y="123" width="1673" height="290" as="geometry" />
        </mxCell>
        <mxCell id="u9Umea-9Md1OC9XHzGHI-2" value="Request Handler" style="whiteSpace=wrap;strokeWidth=2;" vertex="1" parent="1">
          <mxGeometry x="829" y="148" width="133" height="34" as="geometry" />
        </mxCell>
        <mxCell id="u9Umea-9Md1OC9XHzGHI-3" value="USSD Menu Flow" style="whiteSpace=wrap;strokeWidth=2;" vertex="1" parent="1">
          <mxGeometry x="829" y="251" width="132" height="34" as="geometry" />
        </mxCell>
        <mxCell id="u9Umea-9Md1OC9XHzGHI-4" value="Payment Processor" style="whiteSpace=wrap;strokeWidth=2;" vertex="1" parent="1">
          <mxGeometry x="93" y="354" width="150" height="34" as="geometry" />
        </mxCell>
        <mxCell id="u9Umea-9Md1OC9XHzGHI-5" value="Favorites Manager" style="whiteSpace=wrap;strokeWidth=2;" vertex="1" parent="1">
          <mxGeometry x="357" y="354" width="146" height="34" as="geometry" />
        </mxCell>
        <mxCell id="u9Umea-9Md1OC9XHzGHI-6" value="Transaction History" style="whiteSpace=wrap;strokeWidth=2;" vertex="1" parent="1">
          <mxGeometry x="553" y="354" width="154" height="34" as="geometry" />
        </mxCell>
        <mxCell id="u9Umea-9Md1OC9XHzGHI-7" value="Ite Manager" style="whiteSpace=wrap;strokeWidth=2;" vertex="1" parent="1">
          <mxGeometry x="758" y="354" width="100" height="34" as="geometry" />
        </mxCell>
        <mxCell id="u9Umea-9Md1OC9XHzGHI-8" value="NFT Issuer" style="whiteSpace=wrap;strokeWidth=2;" vertex="1" parent="1">
          <mxGeometry x="939" y="354" width="89" height="34" as="geometry" />
        </mxCell>
        <mxCell id="u9Umea-9Md1OC9XHzGHI-9" value="Airtime Converter" style="whiteSpace=wrap;strokeWidth=2;" vertex="1" parent="1">
          <mxGeometry x="1078" y="354" width="146" height="34" as="geometry" />
        </mxCell>
        <mxCell id="u9Umea-9Md1OC9XHzGHI-10" value="XLM-Fiat Exchange Service" style="whiteSpace=wrap;strokeWidth=2;" vertex="1" parent="1">
          <mxGeometry x="1274" y="354" width="207" height="34" as="geometry" />
        </mxCell>
        <mxCell id="u9Umea-9Md1OC9XHzGHI-11" value="KYC Integration" style="whiteSpace=wrap;strokeWidth=2;" vertex="1" parent="1">
          <mxGeometry x="1531" y="354" width="127" height="34" as="geometry" />
        </mxCell>
        <mxCell id="u9Umea-9Md1OC9XHzGHI-12" value="USSD Interface" style="whiteSpace=wrap;strokeWidth=2;" vertex="1" parent="1">
          <mxGeometry x="835" y="20" width="121" height="34" as="geometry" />
        </mxCell>
        <mxCell id="u9Umea-9Md1OC9XHzGHI-13" value="Database" style="shape=cylinder3;boundedLbl=1;backgroundOutline=1;size=10;strokeWidth=2;whiteSpace=wrap;" vertex="1" parent="1">
          <mxGeometry x="588" y="482" width="81" height="63" as="geometry" />
        </mxCell>
        <mxCell id="u9Umea-9Md1OC9XHzGHI-14" value="Stellar SDK" style="whiteSpace=wrap;strokeWidth=2;" vertex="1" parent="1">
          <mxGeometry x="48" y="497" width="94" height="34" as="geometry" />
        </mxCell>
        <mxCell id="u9Umea-9Md1OC9XHzGHI-15" value="Airtime API" style="whiteSpace=wrap;strokeWidth=2;" vertex="1" parent="1">
          <mxGeometry x="1103" y="497" width="96" height="34" as="geometry" />
        </mxCell>
        <mxCell id="u9Umea-9Md1OC9XHzGHI-16" value="KYC Platform" style="whiteSpace=wrap;strokeWidth=2;" vertex="1" parent="1">
          <mxGeometry x="1539" y="497" width="110" height="34" as="geometry" />
        </mxCell>
        <mxCell id="u9Umea-9Md1OC9XHzGHI-17" value="Sends requests" style="curved=1;startArrow=none;endArrow=block;exitX=0.5;exitY=1;entryX=0.5;entryY=0;rounded=0;" edge="1" parent="1" source="u9Umea-9Md1OC9XHzGHI-12" target="u9Umea-9Md1OC9XHzGHI-2">
          <mxGeometry relative="1" as="geometry">
            <Array as="points" />
          </mxGeometry>
        </mxCell>
        <mxCell id="u9Umea-9Md1OC9XHzGHI-18" value="Manages" style="curved=1;startArrow=none;endArrow=block;exitX=0.5;exitY=1;entryX=0.5;entryY=0;rounded=0;" edge="1" parent="1" source="u9Umea-9Md1OC9XHzGHI-2" target="u9Umea-9Md1OC9XHzGHI-3">
          <mxGeometry relative="1" as="geometry">
            <Array as="points" />
          </mxGeometry>
        </mxCell>
        <mxCell id="u9Umea-9Md1OC9XHzGHI-19" value="Uses" style="curved=1;startArrow=none;endArrow=block;exitX=0;exitY=0.64;entryX=0.5;entryY=0;rounded=0;" edge="1" parent="1" source="u9Umea-9Md1OC9XHzGHI-3" target="u9Umea-9Md1OC9XHzGHI-4">
          <mxGeometry relative="1" as="geometry">
            <Array as="points">
              <mxPoint x="167" y="320" />
            </Array>
          </mxGeometry>
        </mxCell>
        <mxCell id="u9Umea-9Md1OC9XHzGHI-20" value="Uses" style="curved=1;startArrow=none;endArrow=block;exitX=0;exitY=0.72;entryX=0.5;entryY=0;rounded=0;" edge="1" parent="1" source="u9Umea-9Md1OC9XHzGHI-3" target="u9Umea-9Md1OC9XHzGHI-5">
          <mxGeometry relative="1" as="geometry">
            <Array as="points">
              <mxPoint x="430" y="320" />
            </Array>
          </mxGeometry>
        </mxCell>
        <mxCell id="u9Umea-9Md1OC9XHzGHI-21" value="Uses" style="curved=1;startArrow=none;endArrow=block;exitX=0;exitY=0.88;entryX=0.5;entryY=0;rounded=0;" edge="1" parent="1" source="u9Umea-9Md1OC9XHzGHI-3" target="u9Umea-9Md1OC9XHzGHI-6">
          <mxGeometry relative="1" as="geometry">
            <Array as="points">
              <mxPoint x="630" y="320" />
            </Array>
          </mxGeometry>
        </mxCell>
        <mxCell id="u9Umea-9Md1OC9XHzGHI-22" value="Uses" style="curved=1;startArrow=none;endArrow=block;exitX=0.28;exitY=1;entryX=0.5;entryY=0;rounded=0;" edge="1" parent="1" source="u9Umea-9Md1OC9XHzGHI-3" target="u9Umea-9Md1OC9XHzGHI-7">
          <mxGeometry relative="1" as="geometry">
            <Array as="points">
              <mxPoint x="808" y="320" />
            </Array>
          </mxGeometry>
        </mxCell>
        <mxCell id="u9Umea-9Md1OC9XHzGHI-23" value="Uses" style="curved=1;startArrow=none;endArrow=block;exitX=0.73;exitY=1;entryX=0.5;entryY=0;rounded=0;" edge="1" parent="1" source="u9Umea-9Md1OC9XHzGHI-3" target="u9Umea-9Md1OC9XHzGHI-8">
          <mxGeometry relative="1" as="geometry">
            <Array as="points">
              <mxPoint x="984" y="320" />
            </Array>
          </mxGeometry>
        </mxCell>
        <mxCell id="u9Umea-9Md1OC9XHzGHI-24" value="Uses" style="curved=1;startArrow=none;endArrow=block;exitX=1.01;exitY=0.89;entryX=0.5;entryY=0;rounded=0;" edge="1" parent="1" source="u9Umea-9Md1OC9XHzGHI-3" target="u9Umea-9Md1OC9XHzGHI-9">
          <mxGeometry relative="1" as="geometry">
            <Array as="points">
              <mxPoint x="1151" y="320" />
            </Array>
          </mxGeometry>
        </mxCell>
        <mxCell id="u9Umea-9Md1OC9XHzGHI-25" value="Uses" style="curved=1;startArrow=none;endArrow=block;exitX=1.01;exitY=0.71;entryX=0.5;entryY=0;rounded=0;" edge="1" parent="1" source="u9Umea-9Md1OC9XHzGHI-3" target="u9Umea-9Md1OC9XHzGHI-10">
          <mxGeometry relative="1" as="geometry">
            <Array as="points">
              <mxPoint x="1377" y="320" />
            </Array>
          </mxGeometry>
        </mxCell>
        <mxCell id="u9Umea-9Md1OC9XHzGHI-26" value="Uses" style="curved=1;startArrow=none;endArrow=block;exitX=1.01;exitY=0.64;entryX=0.5;entryY=0;rounded=0;" edge="1" parent="1" source="u9Umea-9Md1OC9XHzGHI-3" target="u9Umea-9Md1OC9XHzGHI-11">
          <mxGeometry relative="1" as="geometry">
            <Array as="points">
              <mxPoint x="1594" y="320" />
            </Array>
          </mxGeometry>
        </mxCell>
        <mxCell id="u9Umea-9Md1OC9XHzGHI-27" value="Interacts with" style="curved=1;startArrow=none;endArrow=block;exitX=0.3;exitY=1;entryX=0.5;entryY=-0.01;rounded=0;" edge="1" parent="1" source="u9Umea-9Md1OC9XHzGHI-4" target="u9Umea-9Md1OC9XHzGHI-14">
          <mxGeometry relative="1" as="geometry">
            <Array as="points">
              <mxPoint x="95" y="413" />
            </Array>
          </mxGeometry>
        </mxCell>
        <mxCell id="u9Umea-9Md1OC9XHzGHI-28" value="Interacts with" style="curved=1;startArrow=none;endArrow=block;exitX=0.5;exitY=1;entryX=0.5;entryY=-0.01;rounded=0;" edge="1" parent="1" source="u9Umea-9Md1OC9XHzGHI-9" target="u9Umea-9Md1OC9XHzGHI-15">
          <mxGeometry relative="1" as="geometry">
            <Array as="points" />
          </mxGeometry>
        </mxCell>
        <mxCell id="u9Umea-9Md1OC9XHzGHI-29" value="Verifies with" style="curved=1;startArrow=none;endArrow=block;exitX=0.5;exitY=1;entryX=0.5;entryY=-0.01;rounded=0;" edge="1" parent="1" source="u9Umea-9Md1OC9XHzGHI-11" target="u9Umea-9Md1OC9XHzGHI-16">
          <mxGeometry relative="1" as="geometry">
            <Array as="points" />
          </mxGeometry>
        </mxCell>
        <mxCell id="u9Umea-9Md1OC9XHzGHI-30" value="Stores/Retrieves data" style="curved=1;startArrow=none;endArrow=block;exitX=0.7;exitY=1;entryX=0;entryY=0.39;rounded=0;" edge="1" parent="1" source="u9Umea-9Md1OC9XHzGHI-4" target="u9Umea-9Md1OC9XHzGHI-13">
          <mxGeometry relative="1" as="geometry">
            <Array as="points">
              <mxPoint x="243" y="413" />
              <mxPoint x="243" y="448" />
            </Array>
          </mxGeometry>
        </mxCell>
        <mxCell id="u9Umea-9Md1OC9XHzGHI-31" value="Stores/Retrieves data" style="curved=1;startArrow=none;endArrow=block;exitX=0.5;exitY=1;entryX=0;entryY=0.29;rounded=0;" edge="1" parent="1" source="u9Umea-9Md1OC9XHzGHI-5" target="u9Umea-9Md1OC9XHzGHI-13">
          <mxGeometry relative="1" as="geometry">
            <Array as="points">
              <mxPoint x="430" y="448" />
            </Array>
          </mxGeometry>
        </mxCell>
        <mxCell id="u9Umea-9Md1OC9XHzGHI-32" value="Stores/Retrieves data" style="curved=1;startArrow=none;endArrow=block;exitX=0.5;exitY=1;entryX=0.51;entryY=0;rounded=0;" edge="1" parent="1" source="u9Umea-9Md1OC9XHzGHI-6" target="u9Umea-9Md1OC9XHzGHI-13">
          <mxGeometry relative="1" as="geometry">
            <Array as="points">
              <mxPoint x="630" y="448" />
            </Array>
          </mxGeometry>
        </mxCell>
        <mxCell id="u9Umea-9Md1OC9XHzGHI-33" value="Stores/Retrieves data" style="curved=1;startArrow=none;endArrow=block;exitX=0.5;exitY=1;entryX=1;entryY=0.27;rounded=0;" edge="1" parent="1" source="u9Umea-9Md1OC9XHzGHI-7" target="u9Umea-9Md1OC9XHzGHI-13">
          <mxGeometry relative="1" as="geometry">
            <Array as="points">
              <mxPoint x="808" y="448" />
            </Array>
          </mxGeometry>
        </mxCell>
        <mxCell id="u9Umea-9Md1OC9XHzGHI-34" value="Stores/Retrieves data" style="curved=1;startArrow=none;endArrow=block;exitX=0.5;exitY=1;entryX=1;entryY=0.38;rounded=0;" edge="1" parent="1" source="u9Umea-9Md1OC9XHzGHI-8" target="u9Umea-9Md1OC9XHzGHI-13">
          <mxGeometry relative="1" as="geometry">
            <Array as="points">
              <mxPoint x="984" y="448" />
            </Array>
          </mxGeometry>
        </mxCell>
      </root>
    </mxGraphModel>
  </diagram>
</mxfile>
